<?xml version="1.0" encoding="UTF-8" standalone="no"?>
<!DOCTYPE svg PUBLIC "-//W3C//DTD SVG 1.1//EN" "http://www.w3.org/Graphics/SVG/1.1/DTD/svg11.dtd">
<svg width="100%" height="100%" viewBox="0 0 625 417" version="1.1" xmlns="http://www.w3.org/2000/svg" xmlns:xlink="http://www.w3.org/1999/xlink" xml:space="preserve" xmlns:serif="http://www.serif.com/" style="fill-rule:evenodd;clip-rule:evenodd;stroke-linecap:round;stroke-linejoin:round;">
    <g transform="matrix(4.16667,0,0,4.16667,0,0)">
        <g transform="matrix(1.27351,0,0,1.27351,-26.8809,-13.6756)">
            <path d="M25,75L50,25L75,75M85,25C110,25 110,50 85,50C110,50 110,75 85,75" style="fill:none;fill-rule:nonzero;stroke:rgb(46,125,50);stroke-width:6px;"/>
        </g>
        <g transform="matrix(1.27351,0,0,1.27351,-26.8809,-13.6756)">
            <path d="M115,50C128.333,36.667 135,36.667 135,50C135,63.333 128.333,63.333 115,50Z" style="fill:rgb(102,187,106);fill-rule:nonzero;"/>
        </g>
        <g transform="matrix(1.27351,0,0,1.27351,-26.8809,-13.6756)">
            <path d="M115,50L135,50M120,45L130,45M122,40L128,40" style="fill-rule:nonzero;stroke:rgb(255,160,0);stroke-width:3px;stroke-linejoin:miter;"/>
        </g>
    </g>
</svg>
